<?xml version="1.0" encoding="utf-8"?>
<!-- Generator: Adobe Illustrator 16.0.0, SVG Export Plug-In . SVG Version: 6.00 Build 0)  -->
<!DOCTYPE svg PUBLIC "-//W3C//DTD SVG 1.1//EN" "http://www.w3.org/Graphics/SVG/1.1/DTD/svg11.dtd">
<svg version="1.1" id="Layer_1" xmlns="http://www.w3.org/2000/svg" xmlns:xlink="http://www.w3.org/1999/xlink" x="0px" y="0px"
	 width="152.771px" height="152.833px" viewBox="0 0 152.771 152.833" enable-background="new 0 0 152.771 152.833"
	 xml:space="preserve">
<circle fill="#E6E7E8" cx="76.387" cy="76.418" r="76.371"/>
<g>
	<g>
		<g>
			<circle fill="#00A79D" cx="54.034" cy="47.678" r="8.132"/>
		</g>
	</g>
	<g>
		<g>
			<path fill="#00A79D" d="M72.885,77.004l-13.581-0.656l-6.883-13.826l1.831,2.289c0.837-2.918-0.852-5.958-3.765-6.795
				c-3.79-1.085-7.861-0.54-11.229,1.505c-3.37,2.048-5.729,5.405-6.518,9.268l-2.332,11.469c-0.579,2.857,0.152,5.822,1.998,8.084
				c1.764,2.158,4.366,3.443,7.137,3.553c0.779,0.176,0.706,0.115,8.989,0.085l-13.17,11.181c-1.862,1.582-2.089,4.371-0.506,6.232
				c1.579,1.861,4.372,2.092,6.229,0.51L63.475,90.9c0.928-0.788,1.461-1.897,1.546-3.056c-2.189-0.104-7.664-0.37-9.848-0.475
				c-2.462-0.121-4.457-1.886-4.98-4.17c-0.916-3.994-3.659-15.966-3.659-15.966l7.134,14.328c0.595,1.198,1.786,1.978,3.12,2.044
				c0.144,0.003,15.78,0.764,15.922,0.764c1.952,0,3.58-1.533,3.678-3.504C76.484,78.833,74.917,77.102,72.885,77.004z"/>
		</g>
	</g>
	<g>
		<g>
			<path fill="#00A79D" d="M96.757,67.928c-1.723-0.606-3.462-0.12-3.776,0.763c-0.311,0.885-0.843,6.833,0.876,7.439
				c1.722,0.606,5.042-4.354,5.351-5.239C99.521,70.006,98.473,68.536,96.757,67.928z"/>
		</g>
	</g>
	<g>
		<g>
			<path fill="#00A79D" d="M131.566,91.562c-0.458-0.17-0.964,0.065-1.134,0.526l-0.02,0.05c-0.791,2.163-2.086,4.208-3.521,5.771
				c-0.978,1.008-2.149,2.014-3.538,2.668c-0.203-2.353-1.049-5.99-8.02-11.367c-11.61-7.687-14.405-11.457-14.405-11.457
				s-0.664-1.167-1.505-2.607c-1.641,2.079-3.91,4.234-6.402,3.354c-2.75-0.97-2.845-4.696-2.877-5.917
				c-0.024-0.999,0.032-2.259,0.17-3.291l-0.062,0.015c-2.295,0.546-4.09,2.321-4.663,4.61l-2.592,1.587
				c-0.473,0.288-0.798,0.767-0.892,1.311c-0.098,0.544,0.049,1.104,0.396,1.534l1.546,1.916c1.259,1.562,3.396,2.116,5.255,1.358
				c0.807-0.324,1.703-0.301,2.491,0.061c0.782,0.361,1.387,1.033,1.655,1.854c0.438,1.303,0.982,2.879,1.582,4.504l-4.171-0.97
				c-0.513-0.12-1.049-0.085-1.54,0.109l-5.063,1.987c-1.334,0.527-1.993,2.037-1.467,3.365c0.524,1.34,2.031,1.995,3.365,1.475
				l4.311-1.691l6.991,1.618c0.106,0.226,0.212,0.442,0.315,0.649l-2.874,13.224c-0.304,1.401,0.588,2.782,1.992,3.093
				c1.402,0.303,2.784-0.588,3.089-1.988l2.141-9.854c1.261,0.425,2.896,0.764,4.675,1.104c0.484-1.438,1.297-2.752,2.404-3.855
				c0.512-0.516,1.337-0.516,1.852,0c0.524,0.521,0.485,1.363,0,1.85c-2.043,2.043-2.631,4.947-1.824,7.488c-3.498,0-2.17,0-3.021,0
				c-1.431,0-2.595,1.164-2.595,2.602s1.164,2.596,2.595,2.596c11.066,0,10.666,0.029,11.418-0.121
				c2.874-0.547,4.714-2.668,5.463-5.33c2.625-1.243,4.65-3.207,6.239-5.608c1.334-2.11,2.364-4.62,2.808-7.239
				C132.206,92.125,131.973,91.708,131.566,91.562z"/>
		</g>
	</g>
</g>
<g>
	<g>
		<g id="XMLID_1_">
			<g>
				<path fill="#F6B63E" d="M74.685,74.977c0.25,0.24,0.26,0.63,0.02,0.88c-0.24,0.25-0.64,0.26-0.89,0.02
					c-0.14-0.14-0.21-0.33-0.19-0.53c0-0.02,0-0.04-0.02-0.06c-0.01-0.01-0.03-0.02-0.05-0.02c-0.01,0-0.01,0-0.02,0
					c-0.19,0.03-0.39-0.03-0.53-0.17c-0.12-0.11-0.19-0.26-0.19-0.43s0.06-0.32,0.18-0.44c0.24-0.25,0.63-0.26,0.88-0.02
					c0.03,0.03,0.08,0.03,0.11,0l1.88-1.95c0.01-0.01,0.02-0.03,0.02-0.05s-0.01-0.04-0.02-0.05c-0.25-0.24-0.26-0.64-0.02-0.89
					c0.24-0.25,0.64-0.25,0.89-0.01c0.14,0.13,0.209,0.33,0.19,0.52c0,0.02,0,0.05,0.02,0.06c0.011,0.02,0.04,0.03,0.061,0.03
					c0.2-0.03,0.399,0.02,0.54,0.16c0.12,0.11,0.189,0.27,0.189,0.43c-0.01,0.16-0.069,0.32-0.189,0.44s-0.271,0.19-0.44,0.19
					c-0.16,0-0.32-0.06-0.44-0.17c-0.03-0.04-0.07-0.04-0.1,0l-1.89,1.94C74.645,74.887,74.656,74.946,74.685,74.977z"/>
				<path fill="#F6B63E" d="M74.796,75.946c-0.15,0.15-0.35,0.23-0.55,0.23c-0.2,0-0.39-0.07-0.54-0.21
					c-0.15-0.15-0.23-0.36-0.23-0.57c-0.21,0.01-0.42-0.06-0.57-0.21s-0.24-0.33-0.24-0.54s0.08-0.4,0.22-0.55
					c0.28-0.29,0.73-0.31,1.04-0.07l1.78-1.84c-0.25-0.3-0.25-0.75,0.03-1.04c0.3-0.31,0.79-0.32,1.1-0.02
					c0.149,0.15,0.229,0.35,0.229,0.56c0.21-0.01,0.42,0.07,0.561,0.23c0.14,0.14,0.229,0.33,0.229,0.54c0,0.2-0.069,0.39-0.22,0.54
					c-0.14,0.15-0.32,0.24-0.53,0.24c-0.18,0-0.36-0.06-0.5-0.18l-1.78,1.85C75.086,75.207,75.075,75.667,74.796,75.946z
					 M74.705,75.856c0.24-0.25,0.23-0.64-0.02-0.88c-0.03-0.03-0.04-0.09-0.01-0.12l1.89-1.94c0.03-0.04,0.07-0.04,0.1,0
					c0.12,0.11,0.28,0.17,0.44,0.17c0.17,0,0.32-0.07,0.44-0.19s0.18-0.28,0.189-0.44c0-0.16-0.069-0.32-0.189-0.43
					c-0.141-0.14-0.34-0.19-0.54-0.16c-0.021,0-0.05-0.01-0.061-0.03c-0.02-0.01-0.02-0.04-0.02-0.06c0.02-0.19-0.05-0.39-0.19-0.52
					c-0.25-0.24-0.65-0.24-0.89,0.01c-0.24,0.25-0.23,0.65,0.02,0.89c0.01,0.01,0.02,0.03,0.02,0.05s-0.01,0.04-0.02,0.05
					l-1.88,1.95c-0.03,0.03-0.08,0.03-0.11,0c-0.25-0.24-0.64-0.23-0.88,0.02c-0.12,0.12-0.18,0.27-0.18,0.44s0.07,0.32,0.19,0.43
					c0.14,0.14,0.34,0.2,0.53,0.17c0.01,0,0.01,0,0.02,0c0.02,0,0.04,0.01,0.05,0.02c0.02,0.02,0.02,0.04,0.02,0.06
					c-0.02,0.2,0.05,0.39,0.19,0.53C74.066,76.117,74.466,76.106,74.705,75.856z"/>
			</g>
			<g>
			</g>
		</g>
	</g>
	<g>
	</g>
	<g>
	</g>
	<g>
	</g>
	<g>
	</g>
	<g>
	</g>
	<g>
	</g>
	<g>
	</g>
	<g>
	</g>
	<g>
	</g>
	<g>
	</g>
	<g>
	</g>
	<g>
	</g>
	<g>
	</g>
	<g>
	</g>
	<g>
	</g>
</g>
</svg>
