<?xml version="1.0" encoding="utf-8"?>
<!-- Generator: Adobe Illustrator 16.0.0, SVG Export Plug-In . SVG Version: 6.00 Build 0)  -->
<!DOCTYPE svg PUBLIC "-//W3C//DTD SVG 1.1//EN" "http://www.w3.org/Graphics/SVG/1.1/DTD/svg11.dtd">
<svg version="1.1" id="Layer_1" xmlns="http://www.w3.org/2000/svg" xmlns:xlink="http://www.w3.org/1999/xlink" x="0px" y="0px"
	 width="121.101px" height="121.101px" viewBox="0 0 121.101 121.101" enable-background="new 0 0 121.101 121.101"
	 xml:space="preserve">
<g>
	<circle fill="#E6E7E8" cx="60.719" cy="60.718" r="60.718"/>
	<g>
		<g>
			<g>
				<circle fill="#00A79D" cx="42.944" cy="37.868" r="6.466"/>
			</g>
		</g>
		<g>
			<g>
				<path fill="#00A79D" d="M57.934,61.182l-10.798-0.521l-5.473-10.99l1.457,1.815c0.667-2.316-0.677-4.736-2.994-5.399
					c-3.013-0.863-6.249-0.429-8.926,1.198c-2.681,1.625-4.558,4.293-5.185,7.363l-1.853,9.122c-0.462,2.27,0.12,4.628,1.589,6.423
					c1.402,1.716,3.47,2.74,5.674,2.83c0.62,0.139,0.563,0.089,7.147,0.067l-10.468,8.889c-1.481,1.259-1.663,3.476-0.403,4.955
					c1.256,1.482,3.475,1.663,4.953,0.405l17.8-15.107c0.738-0.626,1.163-1.506,1.229-2.426c-1.739-0.085-6.093-0.295-7.827-0.38
					c-1.957-0.094-3.546-1.494-3.959-3.314c-0.729-3.173-2.911-12.692-2.911-12.692l5.673,11.39
					c0.471,0.954,1.418,1.571,2.479,1.624c0.114,0.002,12.546,0.607,12.659,0.607c1.552,0,2.846-1.22,2.925-2.786
					C60.793,62.638,59.547,61.257,57.934,61.182z"/>
			</g>
		</g>
		<g>
			<g>
				<path fill="#00A79D" d="M76.912,53.966c-1.373-0.482-2.753-0.095-3.007,0.606c-0.246,0.703-0.668,5.433,0.699,5.913
					c1.369,0.481,4.006-3.461,4.253-4.166C79.112,55.619,78.274,54.451,76.912,53.966z"/>
			</g>
		</g>
		<g>
			<g>
				<path fill="#00A79D" d="M104.586,72.759c-0.364-0.138-0.77,0.05-0.902,0.419l-0.014,0.039c-0.629,1.72-1.659,3.34-2.802,4.589
					c-0.772,0.8-1.708,1.598-2.812,2.118c-0.161-1.872-0.835-4.763-6.379-9.04c-9.228-6.108-11.453-9.104-11.453-9.104
					s-0.527-0.929-1.194-2.074c-1.303,1.652-3.109,3.369-5.091,2.665c-2.188-0.771-2.261-3.733-2.287-4.702
					c-0.022-0.793,0.026-1.797,0.135-2.617l-0.052,0.01c-1.821,0.435-3.248,1.847-3.706,3.665l-2.059,1.262
					c-0.376,0.231-0.636,0.611-0.709,1.044c-0.076,0.432,0.039,0.875,0.313,1.218l1.229,1.523c1.003,1.242,2.702,1.682,4.177,1.08
					c0.645-0.256,1.358-0.236,1.984,0.051c0.621,0.286,1.099,0.822,1.315,1.473c0.347,1.036,0.778,2.289,1.258,3.579l-3.316-0.771
					c-0.409-0.095-0.836-0.065-1.224,0.089l-4.027,1.581c-1.061,0.419-1.587,1.614-1.167,2.675c0.417,1.065,1.612,1.586,2.676,1.171
					l3.427-1.345l5.562,1.288c0.081,0.178,0.165,0.349,0.249,0.513l-2.284,10.516c-0.243,1.114,0.465,2.213,1.584,2.457
					c1.115,0.243,2.215-0.465,2.455-1.584l1.702-7.829c1,0.338,2.3,0.608,3.717,0.873c0.383-1.142,1.031-2.188,1.909-3.065
					c0.406-0.408,1.064-0.408,1.476,0c0.413,0.416,0.383,1.084,0,1.476c-1.626,1.621-2.095,3.932-1.452,5.953
					c-2.783,0-1.726,0-2.403,0c-1.137,0-2.063,0.925-2.063,2.063c0,1.143,0.926,2.068,2.063,2.068c8.795,0,8.481,0.02,9.077-0.098
					c2.287-0.433,3.749-2.12,4.346-4.241c2.088-0.983,3.698-2.545,4.961-4.459c1.061-1.678,1.88-3.669,2.232-5.753
					C105.094,73.204,104.909,72.87,104.586,72.759z"/>
			</g>
		</g>
	</g>
</g>
<circle fill="#FFFFFF" cx="80.095" cy="32.999" r="13.964"/>
<g>
	<path fill="#00AEEF" d="M72.477,35.373h5.247v5.245c0,1.288,1.08,2.343,2.369,2.343c1.29,0,2.371-1.055,2.371-2.343v-5.245h5.247
		c1.288,0,2.343-1.081,2.343-2.372c0-1.288-1.055-2.372-2.343-2.372h-5.247v-5.244c0-1.289-1.081-2.343-2.371-2.343
		c-1.289,0-2.369,1.054-2.369,2.343v5.244h-5.247c-1.292,0-2.346,1.082-2.346,2.372C70.131,34.29,71.185,35.373,72.477,35.373z"/>
</g>
</svg>
