<?xml version="1.0" encoding="utf-8"?>
<!-- Generator: Adobe Illustrator 16.0.0, SVG Export Plug-In . SVG Version: 6.00 Build 0)  -->
<!DOCTYPE svg PUBLIC "-//W3C//DTD SVG 1.1//EN" "http://www.w3.org/Graphics/SVG/1.1/DTD/svg11.dtd">
<svg version="1.1" xmlns="http://www.w3.org/2000/svg" xmlns:xlink="http://www.w3.org/1999/xlink" x="0px" y="0px" width="200px"
	 height="40.897px" viewBox="0 0 200 40.897" enable-background="new 0 0 200 40.897" xml:space="preserve">
<g id="fiona_no_tocar" display="none">
</g>
<g id="Layer_2" display="none">
</g>
<g id="Layer_3" display="none">
</g>
<g id="lineas_guia" display="none">
</g>
<g id="Layer_4">
	<g>
		<g id="XMLID_13_">
			<g>
				<g>
					<path fill="#FFFFFF" d="M16.321,22.602c0,0,0.986-0.099,2.065-0.137c-0.084,0.071-2.389,1.938-5.385,1.326
						c0,0-2.611,0.992-2.64,1.054c0,0,0.376-1.878,2.771-2.601l0.01-0.025C14.108,22.521,15.209,22.619,16.321,22.602z"/>
				</g>
				<g>
					<path fill="#FFFFFF" d="M10.742,20.709c-0.57-0.094-1.249,0.355-1.249,0.355c-2.264-2.396-2.788-3.978-2.788-3.978
						c-0.168-0.421-0.16-1.232-0.084-2.071l0.232,0.022c-0.071,0.843,0.126,1.493,0.403,2.021
						C7.906,18.292,8.991,19.199,10.742,20.709z"/>
				</g>
				<g>
					<path fill="#FFFFFF" d="M8.35,12.401c0,0.324,0.161,0.229,0.01,0.335c-0.007,0.006-0.016,0.01-0.023,0.016
						C7.79,12.619,8.158,11.66,8.158,11.66s-0.165-0.106-0.343-0.092c0.062-0.032,0.126-0.049,0.192-0.049
						c0.139,0,0.287,0.049,0.335,0.162C8.414,11.842,8.35,12.111,8.35,12.401z"/>
				</g>
				<g>
					<path fill="#FFFFFF" d="M8.158,11.66c0,0-0.28,1.033,0.265,1.166c-0.087,0.059-0.296,0.131-0.425,0.219
						c-0.106,0.069-0.498,0.263-0.6,0.193c-0.151-0.107,0-0.52,0-0.816c0-0.396,0.175-0.734,0.414-0.854c0.003,0,0.003,0,0.003,0
						C7.993,11.554,8.158,11.66,8.158,11.66z"/>
				</g>
			</g>
			<g>
				<g>
					<path fill="#FFFFFF" d="M22.638,37.112l-0.419-0.472l0.177-0.158l12.943-11.565c0.396-0.358,0.779-0.743,1.142-1.138
						l0.469,0.427c-0.377,0.409-0.777,0.808-1.189,1.183L22.638,37.112z"/>
				</g>
				<g>
					<path fill="#FFFFFF" d="M36.949,24.204l-0.469-0.428c1.906-2.079,3.243-4.571,3.866-7.211c0.549-2.326,0.313-3.646,0.311-3.658
						l-0.004-0.032c-0.502-5.643-4.439-9.738-9.367-9.738c-3.724,0-7.094,2.287-8.587,5.824l-0.29,0.689l-0.292-0.69
						c-1.514-3.591-4.72-5.823-8.364-5.823c-4.926,0-8.864,4.096-9.365,9.738l-0.005,0.034c-0.004,0.013-0.24,1.329,0.31,3.653
						c0.517,2.186,1.562,4.488,2.794,6.163l-0.507,0.375c-1.284-1.74-2.368-4.128-2.903-6.393c-0.554-2.353-0.349-3.724-0.318-3.903
						c0.249-2.774,1.351-5.342,3.1-7.229c1.836-1.979,4.283-3.07,6.896-3.07c3.684,0,6.944,2.119,8.656,5.574
						c1.713-3.409,5.128-5.574,8.877-5.574c2.612,0,5.062,1.091,6.896,3.07c1.751,1.888,2.851,4.455,3.1,7.229
						c0.03,0.179,0.235,1.551-0.32,3.906C40.313,19.455,38.926,22.046,36.949,24.204z"/>
				</g>
				<g>
					<path fill="#FFFFFF" d="M22.286,36.77c-0.156-0.812,0.154-3.035,0.2-3.355c0.021-0.465-0.15-0.588-0.208-0.629
						c-0.361-0.261-1.154-0.042-1.433,0.063c-0.863,0.478-1.657,0.569-2.355,0.273c-1.189-0.502-1.652-1.955-1.72-2.187
						c-0.257-0.566-0.098-1.327,0.005-1.835c0.015-0.063,0.025-0.125,0.036-0.178c0.053-0.276-0.04-0.352-0.208-0.485
						c-0.043-0.032-0.083-0.065-0.119-0.1c-0.441-0.417-0.941-0.344-1.424-0.269c-0.17,0.025-0.332,0.052-0.483,0.052
						c-0.003,0-0.005,0-0.009,0c-0.369,0-0.696-0.079-0.959-0.143c-0.182-0.044-0.338-0.082-0.457-0.083
						c-1.318-0.017-2.719-0.345-3.26-0.484l0.157-0.61c0.406,0.104,1.826,0.446,3.112,0.462c0.189,0.003,0.387,0.051,0.596,0.102
						c0.241,0.058,0.517,0.122,0.811,0.122c0.003,0,0.005,0,0.006,0c0.106,0,0.244-0.021,0.391-0.042
						c0.513-0.078,1.289-0.196,1.954,0.435c0.023,0.021,0.051,0.042,0.079,0.065c0.196,0.156,0.559,0.445,0.434,1.096
						c-0.01,0.057-0.021,0.12-0.036,0.189c-0.091,0.431-0.225,1.083-0.044,1.456l0.022,0.058c0.003,0.012,0.385,1.386,1.364,1.797
						c0.516,0.219,1.128,0.132,1.82-0.253l0.037-0.02c0.136-0.053,1.338-0.507,2.051,0.005c0.234,0.168,0.507,0.512,0.471,1.19
						l-0.004,0.028c-0.097,0.672-0.324,2.549-0.207,3.16L22.286,36.77z"/>
				</g>
				<g>
					<path fill="#FFFFFF" d="M8.154,32.15c-0.133,0-0.236-0.021-0.26-0.026l-0.062-0.015l-0.046-0.046
						C7.393,31.69,7.024,31.32,6.69,30.965c-2.289-2.459-2.161-3.542-1.999-3.895l0.432,0.198c-0.042,0.092-0.341,0.952,1.913,3.371
						c0.313,0.335,0.657,0.681,1.024,1.032c0.104,0.013,0.26,0.009,0.325-0.064c0.077-0.087,0.057-0.32-0.054-0.618l-0.007-0.022
						c-0.012-0.047-0.312-1.189-0.084-2.24c0.107-0.502,0.149-0.539,0.827-1.162c0.18-0.163,0.405-0.371,0.697-0.644l0.107-0.102
						l0.137,0.052c0-0.002,0.008,0.001,0.015,0.005l0.114,0.028l-0.09,0.319l0.042,0.041c-0.025,0.023-0.048,0.046-0.071,0.066
						l-0.007,0.03l-0.02-0.004c-0.247,0.23-0.444,0.41-0.604,0.558c-0.609,0.557-0.609,0.557-0.685,0.903
						c-0.193,0.901,0.051,1.91,0.076,2.018c0.178,0.488,0.164,0.854-0.042,1.087C8.573,32.109,8.336,32.15,8.154,32.15z"/>
				</g>
				<g>
					<path fill="#FFFFFF" d="M5.116,27.276l-0.104-0.079v0.002l-0.316-0.134c0.003-0.007,0.006-0.015,0.01-0.021l0.008-0.024
						l0.023-0.03c0.017-0.022,0.027-0.033,0.027-0.033l0.191,0.188l-0.02-0.021l0.024,0.022l0.19,0.062l-0.018,0.041l-0.098-0.041
						L5.116,27.276z"/>
				</g>
				<g>
					<path fill="#FFFFFF" d="M5.075,27.336l-0.199-0.195l0.032,0.03l-0.206-0.118v-0.002l0,0l0.015-0.031
						c0.203-0.373,1.874-3.621,1.891-3.654c0.108-0.195,0.253-0.391,0.448-0.609c0.653-0.729,1.673-1.491,2.123-1.813
						c-2.116-2.288-2.671-3.709-2.695-3.771c-0.162-0.405-0.194-1.117-0.099-2.177c0.12-1.342,0.409-2.769,0.411-2.783l0.004-0.02
						c0.37-1.287,1.299-1.593,2.014-1.623c0.565-0.023,1.038,0.125,1.118,0.153c0.281,0.068,2.433,0.487,3.73,0.737
						c0.147-0.694,0.658-0.896,0.937-0.901h0.008h0.009c0.71,0.04,1.321-0.013,1.526-0.031c0.776-0.678,1.449-0.707,1.479-0.71
						c1.443-0.135,2.813-0.021,2.959-0.008c1.038,0.005,3.864,1.069,4.204,1.199c0.86,0.101,1.898,1.097,1.945,1.141l0.027,0.034
						c0.283,0.414,0.799,0.551,0.952,0.581c0.651-0.174,1.202-0.103,1.634,0.215c0.723,0.531,0.861,1.581,0.889,1.92
						c1.249,1.162,2.503,4.423,2.513,6.01c0.001,0.161,0.024,0.237,0.038,0.269l0.018,0.009c0.915,0.42,1.401,1.029,1.553,1.245
						c0.45,0.146,0.776,0.221,0.779,0.221l0.021,0.006c1.296,0.421,1.688,0.922,1.79,1.266l-0.455,0.132
						c-0.036-0.12-0.246-0.544-1.473-0.943c-0.066-0.016-0.416-0.099-0.89-0.256l-0.084-0.027l-0.045-0.075
						c-0.004-0.008-0.425-0.682-1.37-1.125c-0.125-0.031-0.354-0.165-0.358-0.716c-0.008-1.511-1.262-4.723-2.423-5.724l-0.08-0.067
						l-0.003-0.105c0-0.013-0.041-1.171-0.702-1.655c-0.319-0.233-0.749-0.276-1.275-0.126l-0.049,0.017l-0.048-0.01
						c-0.035-0.004-0.852-0.125-1.307-0.77c-0.289-0.274-1.104-0.943-1.675-0.994l-0.033-0.004l-0.03-0.011
						c-0.031-0.013-3.081-1.18-4.069-1.18c-0.001,0-0.002,0-0.004,0h-0.021c-0.015-0.003-1.433-0.13-2.897,0.008
						c-0.02,0.002-0.587,0.034-1.249,0.638l-0.056,0.051l-0.074,0.008c-0.031,0.004-0.762,0.094-1.67,0.045
						c-0.064,0.006-0.458,0.063-0.5,0.725l-0.02,0.268l-0.263-0.052c-0.15-0.028-3.673-0.706-4.016-0.796l-0.021-0.006
						c-0.002-0.001-0.438-0.15-0.951-0.128c-0.81,0.033-1.338,0.462-1.572,1.271c-0.024,0.123-0.29,1.464-0.402,2.723
						C6.746,16.245,6.835,16.772,6.925,17c0.007,0.016,0.591,1.489,2.786,3.815l0.19,0.203l-0.229,0.155
						c-0.014,0.01-1.462,1.004-2.264,1.898c-0.171,0.191-0.296,0.361-0.384,0.518c-0.065,0.125-1.657,3.229-1.885,3.646
						c-0.006,0.014-0.011,0.024-0.016,0.033l0,0l-0.016,0.029L5.075,27.336z M4.86,27.123l-0.123-0.118L4.86,27.123z"/>
				</g>
				<g>
					<polygon fill="#FFFFFF" points="36.399,23.992 36.399,23.99 37.031,23.99 					"/>
				</g>
				<g>
					<path fill="#FFFFFF" d="M36.967,24.153l-0.469-0.072c0,0-0.001,0.006-0.001,0.018c0,0-0.001-0.015-0.01-0.036l0.454-0.141
						C36.979,24.04,36.972,24.123,36.967,24.153z"/>
				</g>
				<g>
					<path fill="#FFFFFF" d="M32.665,24.04c-2.755,0-3.033-3.075-3.035-3.106l-0.003-0.021l0.004-0.019
						c0.26-1.504-0.587-4.776-0.596-4.81l0.307-0.079c0.036,0.136,0.864,3.342,0.605,4.922c0.024,0.261,0.324,2.7,2.586,2.793
						c-0.027-0.335-0.122-0.914-0.383-1.182l0.226-0.221c0.461,0.475,0.48,1.518,0.48,1.563l0.003,0.157l-0.16,0.002
						C32.689,24.04,32.678,24.04,32.665,24.04z"/>
				</g>
				<g>
					<path fill="#FFFFFF" d="M9.771,27.113c-0.006-0.045-0.143-1.125,0.447-2.338c0.034-0.072,0.057-0.117,2.725-1.131l0.045-0.017
						l0.045,0.011c2.94,0.598,5.23-1.278,5.253-1.294l0.212,0.232c-0.106,0.089-2.417,1.979-5.484,1.379
						c-0.894,0.34-2.286,0.88-2.529,0.999c-0.522,1.106-0.399,2.107-0.399,2.118L9.771,27.113z"/>
				</g>
				<g>
					<path fill="#FFFFFF" d="M10.517,24.877l-0.311-0.064c0.016-0.079,0.425-1.978,2.882-2.721l0.092,0.303
						C10.902,23.083,10.521,24.858,10.517,24.877z"/>
				</g>
				<g>
					<path fill="#FFFFFF" d="M20.327,13.521c-1.168-1.589-3.957-1.033-3.983-1.027l-0.065-0.311c0.122-0.023,3.016-0.603,4.304,1.15
						L20.327,13.521z"/>
				</g>
				<g>
					<path fill="#FFFFFF" d="M23.205,25.406l-0.268-0.168c1.779-2.843,2.085-4.967,1.469-5.598c-0.962-0.979-1.415-1.786-1.435-1.82
						l0.277-0.154c0.004,0.008,0.453,0.807,1.383,1.754C25.479,20.284,24.905,22.688,23.205,25.406z"/>
				</g>
				<g>
					<path fill="#FFFFFF" d="M22.403,25.446l-0.315-0.024c0.097-1.288,0.6-2.363,0.621-2.408c0.237-0.547,0.252-1.03,0.043-1.426
						c-0.408-0.779-1.535-1.012-1.548-1.015l0.062-0.311c0.053,0.011,1.289,0.267,1.768,1.177c0.253,0.486,0.242,1.061-0.034,1.705
						C22.99,23.161,22.493,24.219,22.403,25.446z"/>
				</g>
				<g>
					<path fill="#FFFFFF" d="M13.851,18.643c-0.614-0.719-1.457-2.475-1.492-2.551l0.285-0.135c0.009,0.018,0.858,1.793,1.447,2.48
						L13.851,18.643z"/>
				</g>
				<g>
					<path fill="#FFFFFF" d="M14.84,17.961c-0.525-0.573-1.193-2.074-1.221-2.139l0.287-0.126c0.007,0.015,0.676,1.515,1.168,2.054
						L14.84,17.961z"/>
				</g>
				<g>
					<path fill="#FFFFFF" d="M28.683,15.476c-2.578-0.984-2.138-2.431-2.119-2.492l0.302,0.098l-0.15-0.049l0.15,0.048
						c-0.017,0.05-0.351,1.229,1.93,2.1L28.683,15.476z"/>
				</g>
				<g>
					<path fill="#FFFFFF" d="M6.728,30.928c-0.008-0.033-0.015-0.064-0.021-0.098c-1.689-7.374,3.806-9.814,3.861-9.838l0.125,0.293
						c-0.015,0.004-1.349,0.588-2.46,2.043c-1.472,1.92-1.892,4.492-1.217,7.438c0.007,0.031,0.014,0.057,0.02,0.085L6.728,30.928z"
						/>
				</g>
				<g>
					<path fill="#FFFFFF" d="M20.776,22.777c-0.38-0.142-1.225-0.198-2.384-0.155c-1.061,0.036-2.046,0.138-2.056,0.138
						c-1.291,0.018-2.348-0.108-3.241-0.393c-0.71-0.219-1.313-0.545-1.793-0.963l-0.088-0.078c-0.17-0.146-0.333-0.289-0.491-0.424
						c-0.028-0.025-0.056-0.049-0.082-0.07l-0.217-0.186c-1.609-1.39-2.672-2.305-3.309-3.512c-0.345-0.658-0.483-1.35-0.421-2.111
						c0.048-0.551,0.203-1.149,0.463-1.778c-0.011-0.29-0.021-1.068,0.129-1.334c0.114-0.412,0.37-0.489,0.514-0.5l0.025,0.313
						c-0.042,0.005-0.169,0.013-0.241,0.29l-0.007,0.03l-0.018,0.024c-0.075,0.102-0.104,0.701-0.086,1.2l0.002,0.033l-0.014,0.032
						c-0.255,0.61-0.406,1.188-0.451,1.716c-0.059,0.698,0.066,1.332,0.385,1.937c0.609,1.153,1.598,2.005,3.234,3.418l0.215,0.184
						c0.025,0.021,0.055,0.048,0.085,0.072c0.159,0.137,0.322,0.278,0.493,0.429l0.087,0.076c0.446,0.39,1.012,0.691,1.679,0.9
						c0.861,0.272,1.885,0.395,3.129,0.379c-0.003,0,0.992-0.101,2.063-0.138c1.235-0.047,2.078,0.012,2.508,0.175L20.776,22.777z"
						/>
				</g>
				<g>
					<path fill="#FFFFFF" d="M8.478,12.926c-0.063,0-0.125-0.007-0.181-0.021l0.078-0.307c0.141,0.035,0.438,0.008,1.05-0.326
						c0.056-0.029,0.108-0.064,0.15-0.094c-0.299-0.783-0.848-1.245-0.854-1.248l0.202-0.244c0.028,0.023,0.673,0.564,0.989,1.498
						l0.035,0.104l-0.085,0.069c-0.005,0.004-0.133,0.108-0.286,0.194C9.115,12.801,8.753,12.926,8.478,12.926z"/>
				</g>
				<g>
					<path fill="#FFFFFF" d="M9.58,21.195l-0.175-0.263c0.03-0.02,0.739-0.483,1.363-0.38l-0.054,0.311
						C10.213,20.78,9.587,21.192,9.58,21.195z"/>
				</g>
				<g>
					<path fill="#FFFFFF" d="M7.445,13.329c-0.036,0-0.065-0.01-0.092-0.027c-0.141-0.097-0.104-0.322-0.068-0.561
						c0.018-0.111,0.034-0.224,0.034-0.319c0-0.418,0.186-0.789,0.459-0.925l0.019-0.009c0.066-0.031,0.139-0.047,0.211-0.047
						c0.155,0,0.343,0.056,0.407,0.209c0.055,0.123,0.042,0.285,0.027,0.472c-0.006,0.092-0.013,0.184-0.013,0.279
						c0,0.138,0.029,0.181,0.046,0.204c0.013,0.017,0.032,0.047,0.025,0.086c-0.009,0.047-0.043,0.072-0.098,0.109
						c-0.007,0.004-0.016,0.013-0.027,0.019c-0.037,0.023-0.09,0.056-0.149,0.09c-0.076,0.042-0.159,0.089-0.231,0.138l-0.031,0.021
						C7.784,13.194,7.579,13.329,7.445,13.329z M7.833,11.647c-0.21,0.115-0.354,0.43-0.354,0.774c0,0.109-0.02,0.228-0.037,0.343
						c-0.026,0.164-0.057,0.366,0.002,0.408l0.002-0.003c0.096,0,0.348-0.176,0.429-0.23l0.034-0.023
						c0.075-0.052,0.162-0.102,0.24-0.146c0.054-0.032,0.107-0.061,0.145-0.086c0.008-0.005,0.014-0.008,0.018-0.012
						c0.007-0.004,0.01-0.007,0.015-0.01c-0.026-0.048-0.054-0.124-0.054-0.262c0-0.101,0.007-0.197,0.015-0.292
						c0.012-0.166,0.022-0.309-0.016-0.395C8.237,11.635,8.115,11.6,8.008,11.6c-0.055,0-0.107,0.013-0.157,0.039L7.833,11.647z"/>
				</g>
			</g>
		</g>
	</g>
	<g>
		<g>
			<path fill="#FFFFFF" d="M138.303,21.501c0.272-0.109,4.115-1.689,4.225-4.199c0-0.025,0.382-1.525-3.19-1.66
				c-6.621-0.246-12.919,5.205-13.08,10.273c0,0.383-0.655,5.969,5.669,6.188c6.321,0.219,11.663-4.145,11.663-4.145
				s0.247-0.215,0.382,0.057c0,0.027,0.055,0.518-0.872,1.309c-0.301,0.273-5.396,3.951-10.819,3.732
				c-4.088-0.162-7.304-2.234-7.114-7.168c0.19-5.586,7.087-11.5,14.118-11.227c0.273,0,4.278,0.053,4.306,2.59
				c0.028,2.506-3.924,4.713-4.278,4.904c-0.354,0.217-1.334,0.598-1.607,0.025C137.458,21.692,137.759,21.692,138.303,21.501z"/>
		</g>
		<g>
			<path fill="#FFFFFF" d="M151.362,30.886c-2.078,0.035-2.389-2.076-2.389-2.076s-1.246,2.283-2.457,2.248
				c-0.658,0-2.318-0.588-1.904-3.84c0.417-3.254,2.596-4.707,3.703-4.672c2.007,0.07,1.834,1.799,1.799,1.973
				c-0.276,0.898-0.621,0.658-0.864,0.553c0,0,0.207-1.453-0.969-1.488c-1.004-0.033-2.007,1.488-2.354,3.047
				c-0.381,1.59-0.139,3.219,0.693,3.219c1.279,0,2.353-3.463,2.491-4.328c0.069-0.344,1.35-0.066,1.279,0.484
				c-0.033,0-1.279,3.705,1.038,3.705c1.038,0,2.388-1.072,4.223-4.432c0.311-0.553,0.795,0.242,0.068,1.592
				C155.132,27.979,153.403,30.853,151.362,30.886z"/>
		</g>
		<g>
			<path fill="#FFFFFF" d="M156.517,25.487c-0.104,0-0.345,0.555-0.797,1.383c-0.24,0.279-0.795-0.275-0.483-0.898
				c0.207-0.381,0.416-0.727,0.763-1.281c0.345-0.623,1.209-0.967,1.659,0.209c0.554,1.486-0.45,3.943,0.242,4.117
				c0.519,0.104,2.076-4.223,2.424-4.984c0.311-0.76,1.07-0.691,1.625-0.033c0.484,0.52-1.625,5.502,1.107,5.711
				c2.111,0.172,3.703-2.941,4.497-4.396c0.312-0.553,0.763,0.244,0.07,1.627c-0.242,0.484-1.971,3.945-4.567,3.842
				c-3.563-0.105-2.145-4.361-2.665-4.5c-0.275-0.068-1.105,4.256-2.836,4.154c-1.351-0.104-0.971-2.32-0.866-3.705
				C156.759,26.005,156.759,25.487,156.517,25.487z"/>
		</g>
		<g>
			<path fill="#FFFFFF" d="M169.733,31.024c-2.697,0.033-2.976-3.186-2.906-3.807c0.07-0.76,0.347-2.318,0.347-2.318
				c0.242-0.623,1.314-0.555,1.314,0.07c0,0.172-1.314,5.049,1.385,4.912c1.834-0.068,3.564-3.184,4.36-4.637
				c0.311-0.588,0.796,0.209,0.103,1.59C174.095,27.321,172.19,31.024,169.733,31.024z M168.696,22.337
				c-0.068,0.486-0.519,0.832-1.039,0.762c-0.655-0.104-0.795-0.656-0.76-1.002c0-0.313,0.346-1.176,1.073-1.074
				C168.732,21.128,168.766,21.854,168.696,22.337z"/>
		</g>
		<g>
			<path fill="#FFFFFF" d="M175.168,25.487c-0.104,0-0.347,0.555-0.796,1.383c-0.242,0.279-0.798-0.275-0.486-0.898
				c0.209-0.381,0.417-0.727,0.762-1.281c0.347-0.623,1.212-0.967,1.661,0.209c0.555,1.486-0.449,3.943,0.242,4.117
				c0.52,0.104,2.077-4.223,2.423-4.984c0.312-0.76,1.072-0.691,1.626-0.033c0.483,0.52-1.626,5.502,1.106,5.711
				c2.111,0.172,3.704-2.941,4.498-4.396c0.313-0.553,0.764,0.244,0.07,1.627c-0.242,0.484-1.973,3.945-4.568,3.842
				c-3.563-0.105-2.146-4.361-2.663-4.5c-0.276-0.068-1.108,4.256-2.838,4.154c-1.35-0.104-0.968-2.32-0.865-3.705
				C175.409,26.005,175.409,25.487,175.168,25.487z"/>
		</g>
		<g>
			<path fill="#FFFFFF" d="M192.261,30.886c-2.076,0.035-2.387-2.076-2.387-2.076s-1.247,2.283-2.458,2.248
				c-0.657,0-2.32-0.588-1.903-3.84c0.415-3.254,2.596-4.707,3.703-4.672c2.008,0.07,1.834,1.799,1.8,1.973
				c-0.278,0.898-0.624,0.658-0.865,0.553c0,0,0.206-1.453-0.97-1.488c-1.004-0.033-2.006,1.488-2.353,3.047
				c-0.381,1.59-0.138,3.219,0.692,3.219c1.278,0,2.354-3.463,2.49-4.328c0.069-0.344,1.35-0.066,1.281,0.484
				c-0.036,0-1.281,3.705,1.039,3.705c1.038,0,2.386-1.072,4.221-4.432c0.312-0.553,0.795,0.242,0.067,1.592
				C196.033,27.979,194.302,30.853,192.261,30.886z"/>
		</g>
	</g>
	<g>
		<g>
			<path fill="#FFFFFF" d="M47.199,11.746c-2.978,0.244-4.396-0.033-4.327-0.656c0.07-0.588,0.59-0.451,1.108-0.451
				c1.453-0.033,2.732-0.102,8.235-0.621c0.139-0.451,0.346-0.797,0.658-0.762c0.276,0.035,0.413,0.311,0.449,0.691
				c5.571-0.52,6.367-0.623,12.941-0.381c0.901,0.035,1.592,0.451,1.557,0.971c-0.033,0.482-1.627,0.309-1.627,0.309h-5.19
				c-1.59,0-4.636,0.209-7.576,0.383c0,1.176-0.485,5.986-0.658,8.926c3.218-0.137,5.743,0.072,5.778,0.072
				c0,0,1.765-0.037,1.73,0.689c-0.033,0.484-1.522,0.416-1.487,0.416c0,0-3.979,0.068-6.056,0.139
				c-0.07,1.383-0.139,2.732-0.174,3.287c-0.174,2.387-0.104,3.184,0.208,5.191c0.068,0.346,0.311,0.691,0.104,0.863
				c-0.242,0.209-2.112,0.348-1.974-3.633c0.104-2.49,0.139-4.359,0.174-5.641c-1.489,0.104-3.808,0.313-4.465,0.381
				c-0.863,0.068-1.626,0.277-1.729-0.277c-0.106-0.482,0.24-0.621,0.587-0.656c2.527-0.383,2.805-0.553,5.711-0.727
				c0.311-2.941,0.551-5.918,0.796-8.893C50.037,11.504,48.272,11.645,47.199,11.746z"/>
		</g>
		<g>
			<path fill="#FFFFFF" d="M67.094,30.262c-2.075,0.033-2.387-2.078-2.387-2.078s-1.245,2.283-2.457,2.25
				c-0.656,0-2.318-0.59-1.902-3.842c0.414-3.252,2.595-4.705,3.701-4.672c2.009,0.068,1.835,1.801,1.8,1.973
				c-0.276,0.9-0.623,0.656-0.864,0.555c0,0,0.207-1.453-0.97-1.488c-1.003-0.035-2.008,1.488-2.354,3.045
				c-0.38,1.592-0.138,3.217,0.693,3.217c1.281,0,2.353-3.459,2.491-4.324c0.068-0.348,1.349-0.07,1.28,0.484
				c-0.036,0-1.28,3.701,1.037,3.701c1.039,0,2.388-1.07,4.223-4.428c0.312-0.555,0.796,0.242,0.069,1.592
				C70.866,27.354,69.137,30.225,67.094,30.262z"/>
		</g>
		<g>
			<path fill="#FFFFFF" d="M72.042,30.121c0,0.035-0.76,0.934-1.279-0.346c-0.555-1.352-0.035-4.324-0.035-4.324
				s0.761-4.639,1.558-13.08c0.587-1.211,1.87,0,1.662,0.76c0.032,0-1.731,6.438-2.043,13.531c0-0.035,1.211-5.053,3.979-4.707
				c2.11,0.277,1.558,3.842,1.453,4.498c-0.484,3.184-2.803,4.326-3.633,4.291C72.872,30.711,72.042,30.156,72.042,30.121z
				 M72.354,28.633c0,0.035,0.243,1.004,1.246,0.971c2.526-0.141,4.084-6.609,1.903-6.473
				C73.461,23.234,72.354,28.633,72.354,28.633z"/>
		</g>
		<g>
			<path fill="#FFFFFF" d="M81.385,30.398c-2.698,0.035-2.976-3.184-2.906-3.807c0.069-0.764,0.347-2.316,0.347-2.316
				c0.24-0.625,1.315-0.555,1.315,0.068c0,0.174-1.315,5.051,1.383,4.914c1.835-0.072,3.564-3.186,4.36-4.639
				c0.313-0.588,0.795,0.207,0.104,1.594C85.745,26.695,83.842,30.398,81.385,30.398z M80.346,21.713
				c-0.067,0.484-0.518,0.83-1.037,0.762c-0.656-0.104-0.796-0.658-0.761-1.004c0-0.311,0.346-1.176,1.072-1.072
				C80.381,20.502,80.417,21.229,80.346,21.713z"/>
		</g>
		<g>
			<path fill="#FFFFFF" d="M91.94,30.262c-2.079,0.033-2.39-2.078-2.39-2.078s-1.244,2.283-2.456,2.25
				c-0.658,0-2.318-0.59-1.902-3.842c0.414-3.252,2.595-4.705,3.703-4.672c2.006,0.068,1.833,1.801,1.799,1.973
				c-0.278,0.9-0.624,0.656-0.865,0.555c0,0,0.207-1.453-0.969-1.488c-1.004-0.035-2.007,1.488-2.354,3.045
				c-0.381,1.592-0.138,3.217,0.693,3.217c1.28,0,2.352-3.459,2.491-4.324c0.068-0.348,1.35-0.07,1.279,0.484
				c-0.033,0-1.279,3.701,1.038,3.701c1.037,0,2.39-1.07,4.222-4.428c0.312-0.555,0.797,0.242,0.068,1.592
				C95.71,27.354,93.98,30.225,91.94,30.262z"/>
		</g>
		<g>
			<path fill="#FFFFFF" d="M97.095,24.863c-0.103,0-0.348,0.553-0.797,1.383c-0.24,0.275-0.795-0.275-0.483-0.9
				c0.208-0.379,0.415-0.727,0.761-1.279c0.347-0.623,1.211-0.971,1.661,0.209c0.554,1.486-0.45,3.943,0.241,4.115
				c0.521,0.105,2.078-4.221,2.425-4.982c0.31-0.762,1.07-0.691,1.624-0.033c0.485,0.518-1.624,5.5,1.108,5.707
				c2.113,0.176,3.702-2.939,4.498-4.393c0.312-0.555,0.762,0.24,0.068,1.625c-0.241,0.486-1.971,3.947-4.566,3.842
				c-3.564-0.104-2.146-4.359-2.665-4.5c-0.276-0.068-1.108,4.258-2.837,4.152c-1.35-0.104-0.969-2.318-0.865-3.701
				C97.337,25.381,97.337,24.863,97.095,24.863z"/>
		</g>
		<g>
			<path fill="#FFFFFF" d="M114.188,30.262c-2.076,0.033-2.387-2.078-2.387-2.078s-1.248,2.283-2.458,2.25
				c-0.659,0-2.319-0.59-1.903-3.842c0.414-3.252,2.595-4.705,3.703-4.672c2.007,0.068,1.833,1.801,1.8,1.973
				c-0.277,0.9-0.624,0.656-0.865,0.555c0,0,0.206-1.453-0.97-1.488c-1.004-0.035-2.008,1.488-2.353,3.045
				c-0.38,1.592-0.139,3.217,0.692,3.217c1.279,0,2.354-3.459,2.49-4.324c0.07-0.348,1.35-0.07,1.281,0.484
				c-0.035,0-1.281,3.701,1.038,3.701c1.037,0,2.388-1.07,4.221-4.428c0.313-0.555,0.796,0.242,0.068,1.592
				C117.96,27.354,116.229,30.225,114.188,30.262z"/>
		</g>
	</g>
</g>
</svg>
