<?xml version="1.0" encoding="utf-8"?>
<!-- Generator: Adobe Illustrator 16.0.0, SVG Export Plug-In . SVG Version: 6.00 Build 0)  -->
<!DOCTYPE svg PUBLIC "-//W3C//DTD SVG 1.1//EN" "http://www.w3.org/Graphics/SVG/1.1/DTD/svg11.dtd">
<svg version="1.1" id="Layer_1" xmlns="http://www.w3.org/2000/svg" xmlns:xlink="http://www.w3.org/1999/xlink" x="0px" y="0px"
	 width="85.821px" height="86.365px" viewBox="0 0 85.821 86.365" enable-background="new 0 0 85.821 86.365" xml:space="preserve">
<g>
	<path fill="#00A79D" d="M85.35,39.406L42.911,0L0.471,39.406c-0.597,0.559-0.632,1.493-0.076,2.093
		c0.554,0.597,1.493,0.632,2.091,0.076l4.913-4.558v49.347h23.673h23.675h23.676v-49.35l4.91,4.557
		c0.286,0.27,0.647,0.397,1.01,0.397c0.397,0,0.791-0.159,1.083-0.473C85.982,40.899,85.947,39.965,85.35,39.406z M34.031,83.405
		V59.729c0-4.897,3.984-8.88,8.88-8.88s8.877,3.982,8.877,8.88v23.676H34.031z M75.463,83.405H54.748V59.729
		c0-6.527-5.313-11.84-11.837-11.84c-6.528,0-11.838,5.313-11.838,11.84v23.676H10.356V34.268L42.911,4.04l32.553,30.229V83.405z"/>
</g>
</svg>
