<?xml version="1.0" encoding="utf-8"?>
<!-- Generator: Adobe Illustrator 16.0.0, SVG Export Plug-In . SVG Version: 6.00 Build 0)  -->
<!DOCTYPE svg PUBLIC "-//W3C//DTD SVG 1.1//EN" "http://www.w3.org/Graphics/SVG/1.1/DTD/svg11.dtd">
<svg version="1.1" id="Layer_1" xmlns="http://www.w3.org/2000/svg" xmlns:xlink="http://www.w3.org/1999/xlink" x="0px" y="0px"
	 width="92.534px" height="86.109px" viewBox="0 0 92.534 86.109" enable-background="new 0 0 92.534 86.109" xml:space="preserve">
<g>
	<g>
		<path fill="#00A79D" d="M92.381,25.725C91.03,10.86,80.507,0.075,67.338,0.075c-8.773,0-16.807,4.72-21.328,12.288
			C41.532,4.698,33.827,0.072,25.194,0.072c-13.169,0-23.691,10.785-25.04,25.653c-0.106,0.658-0.545,4.113,0.785,9.75
			c1.918,8.127,6.349,15.523,12.812,21.378l32.238,29.256l32.792-29.256c6.46-5.855,10.892-13.248,12.812-21.378
			C92.924,29.841,92.485,26.383,92.381,25.725z M88.127,34.658c-1.75,7.425-5.809,14.189-11.727,19.549L46.01,81.321L16.144,54.216
			c-5.93-5.372-9.986-12.136-11.738-19.558c-1.26-5.334-0.744-8.349-0.741-8.367l0.027-0.18C4.848,13.087,13.89,3.63,25.194,3.63
			c8.343,0,15.682,5.127,19.169,13.375l1.641,3.885l1.637-3.885c3.428-8.121,11.16-13.372,19.697-13.372
			c11.305,0,20.349,9.455,21.529,22.65C88.871,26.309,89.387,29.324,88.127,34.658z"/>
	</g>
</g>
</svg>
