<?xml version="1.0" encoding="utf-8"?>
<!-- Generator: Adobe Illustrator 16.0.0, SVG Export Plug-In . SVG Version: 6.00 Build 0)  -->
<!DOCTYPE svg PUBLIC "-//W3C//DTD SVG 1.1//EN" "http://www.w3.org/Graphics/SVG/1.1/DTD/svg11.dtd">
<svg version="1.1" id="Layer_1" xmlns="http://www.w3.org/2000/svg" xmlns:xlink="http://www.w3.org/1999/xlink" x="0px" y="0px"
	 width="99px" height="86.109px" viewBox="0 0 99 86.109" enable-background="new 0 0 99 86.109" xml:space="preserve">
<g>
	<g>
		<path fill="#00A79D" d="M81.634,82.574c-4.008-8.326-11.222-14.868-19.968-18.165v-5.265c4.299-0.236,12.408-1.331,17.163-6.196
			c0.601-0.62,0.837-1.512,0.62-2.35c-0.22-0.837-0.876-1.493-1.713-1.729c-0.074-0.019-6.341-2.168-5.084-14.997
			c0.547-5.465,0.456-10.385-0.255-14.612c-0.82-4.848-2.459-8.655-4.845-11.315c-2.589-2.861-5.959-4.318-10.022-4.318
			c-0.165,0-0.327,0-0.475,0C55.506,2.279,52.118,0,46.924,0C44.5,0,41.969,0.494,39.38,1.496l-0.109,0.036
			c-2.04,0.766-5.831,2.205-9.037,6.467c-3.733,4.956-5.521,12.298-5.301,21.81c0.217,9.529-1.348,14.193-2.696,16.436
			c-1.111,1.839-2.171,2.205-2.443,2.275c-0.93-0.071-1.677,0.401-2.149,1.203c-0.492,0.821-0.311,1.859,0.236,2.66
			c0.22,0.329,1.493,2.042,4.573,3.7c3.517,1.895,7.909,2.97,13.1,3.188v5.01c-8.637,3.28-15.815,9.877-19.878,18.313
			c-0.365,0.766-0.31,1.658,0.129,2.369c0.456,0.711,1.238,1.147,2.076,1.147H79.43c0.837,0,1.639-0.437,2.078-1.147
			C81.944,84.232,81.999,83.34,81.634,82.574z M22.073,81.171c3.934-6.047,9.838-10.621,16.671-12.825
			c1.021-0.33,1.712-1.277,1.712-2.333v-9.164c0-0.656-0.255-1.295-0.73-1.749c-0.472-0.458-1.092-0.73-1.749-0.713
			c-7.088,0.074-11.368-1.548-13.701-2.932c0.165-0.164,0.346-0.329,0.527-0.51c3.591-3.733,5.284-10.876,5.048-21.245
			c-0.475-19.15,7.67-22.247,11.131-23.559l0.11-0.036c2.042-0.766,3.991-1.167,5.795-1.167c4.7,0,7.104,2.589,7.305,2.825
			c0.51,0.637,1.295,0.947,2.113,0.873c0.401-0.036,0.802-0.055,1.186-0.055c2.641,0,4.736,0.876,6.374,2.699
			c3.464,3.827,4.887,11.897,3.866,22.137c-1.022,10.33,2.204,15.504,4.99,18.02c-3.752,2.078-9.092,2.86-13.116,2.86
			c-0.22,0-0.346,0-0.365,0c-0.656-0.016-1.312,0.239-1.787,0.695c-0.473,0.453-0.747,1.092-0.747,1.765v9.421
			c0,1.074,0.692,2.004,1.713,2.331c6.924,2.243,12.848,6.762,16.762,12.702h-53.11V81.171z"/>
	</g>
</g>
</svg>
