<?xml version="1.0" encoding="utf-8"?>
<!-- Generator: Adobe Illustrator 16.0.0, SVG Export Plug-In . SVG Version: 6.00 Build 0)  -->
<!DOCTYPE svg PUBLIC "-//W3C//DTD SVG 1.1//EN" "http://www.w3.org/Graphics/SVG/1.1/DTD/svg11.dtd">
<svg version="1.1" id="Layer_1" xmlns="http://www.w3.org/2000/svg" xmlns:xlink="http://www.w3.org/1999/xlink" x="0px" y="0px"
	 width="154.983px" height="86.109px" viewBox="0 0 154.983 86.109" enable-background="new 0 0 154.983 86.109"
	 xml:space="preserve">
<g>
	<g>
		<g>
			<path fill="#00A79D" d="M80.224,12.281c0,1.547-1.254,2.804-2.805,2.804c-1.545,0-2.804-1.257-2.804-2.804
				c0-1.549,1.259-2.805,2.804-2.805C78.97,9.476,80.224,10.731,80.224,12.281z"/>
		</g>
	</g>
	<g>
		<g>
			<path fill="#00A79D" d="M53.181,15.072c-0.014,1.68,3.615,7.069,4.504,8.555c2.116,3.525,7.211,6.41,11.327,6.41h11.211v7.56
				c-5.305,4.012-8.465,10.717-7.193,18.14c0.909,5.307,4.22,9.89,8.718,12.645l0.831,6.651c-3.558,0.444-6.596,2.528-8.323,5.475
				c-1.447,2.477,0.409,5.603,3.272,5.603H91.44c2.064,0,3.739-1.675,3.739-3.739V71.154h4.284c3.227,0,3.966,2.112,5.251,4.664
				c-2.278,0.986-4.167,2.713-5.368,4.878c-1.336,2.432,0.584,5.414,3.363,5.414h46.672c3.096,0,5.602-2.513,5.602-5.608
				c0-3.096-2.506-5.605-5.602-5.605l-10.951,0.026c1.312-2.971,1.604-5.259,1.604-7.505c0-5.033-2.376-10.016-5.524-13.164
				c-3.746-3.717-22.647-14.424-31.859-19.731v-0.746c0.572,0,1.143-0.042,1.727-0.13c5.264-0.786,9.49-6.274,9.49-11.597v-2.937
				c0-2.581-1.026-5.054-2.849-6.878l-8.75-8.75l-0.065-0.068c-2.116-2.104-4.972-3.285-7.952-3.285h-0.078H81.131
				c-2.973,0-5.829,1.182-7.933,3.285l-4.641,4.645c-3.59,3.589-7.31,3.284-11.64,3.284C54.744,11.345,53.187,13.131,53.181,15.072z
				 M95.179,22.562V3.964c1.694,0.208,3.272,0.99,4.447,2.165l8.75,8.747c1.162,1.162,1.752,2.685,1.752,4.239v3.028
				c0,3.981-2.889,7.854-7.458,7.854C98.398,29.998,95.179,26.558,95.179,22.562z M132.446,82.37
				c2.123-1.577,2.35-1.886,3.733-3.703c3.031-0.01-0.325,0,13.209-0.036c1.02,0,1.863,0.84,1.863,1.87
				c0,1.032-0.844,1.869-1.869,1.869H132.446z M58.769,18.162c1.221-0.662,2.136-1.786,2.532-3.143
				c3.738-0.168,7.238-1.652,9.899-4.316l4.648-4.642c1.395-1.402,3.296-2.19,5.283-2.19H91.44v18.691
				c0,4.875,3.129,8.984,7.478,10.525c-0.006,0.968,0,2.578,0,3.594c4.439,2.564,27.186,15.715,31.301,18.782
				c4.108,3.058,6.134,7.683,6.056,12.155c-0.097,8.072-6.64,14.745-14.923,14.751h-18.643c1.44-2.658,4.232-3.443,7.14-4.706
				l-1.124-2.214c-3.161-4.95-3.499-13.061,2.045-18.607l-2.642-2.642c-3.758,3.758-5.595,8.874-5.413,13.953
				c-1.02-0.432-2.097-0.737-3.253-0.737c-2.506,0-3.297,0-4.284,0v-3.736H91.44c0,9.004,0,9.728,0,18.689
				c-7.802,0-6.096,0-13.911,0c2.058-3.612,5.454-3.619,9.224-4.089c-0.349-2.789-0.623-4.96-1.519-12.146
				c-4.238-2.6-7.575-5.521-8.517-11.033c-1.194-6.939,1.863-11.574,7.244-15.645V28.262c1.883-1.351,3.259-3.353,3.74-5.7h-3.895
				c-0.772,2.168-2.831,3.736-5.264,3.736h-9.53c-2.947,0-6.602-2.067-8.121-4.596L58.769,18.162z"/>
		</g>
	</g>
</g>
<g>
	<g>
		<g>
			<path fill="#00A79D" d="M48.71,35.458c0.974,0,1.766,0.792,1.766,1.762c0,0.971-0.792,1.763-1.766,1.763
				c-0.971,0-1.759-0.792-1.759-1.763C46.951,36.249,47.74,35.458,48.71,35.458z"/>
		</g>
	</g>
	<g>
		<g>
			<path fill="#00A79D" d="M61.59,36.635c-2.72,0-5.054,0.191-7.31-2.067l-2.918-2.918c-1.32-1.317-3.112-2.061-4.979-2.061h-8.192
				h-0.049c-1.873,0-3.668,0.744-4.992,2.061l-0.042,0.046l-5.495,5.495c-1.149,1.148-1.792,2.701-1.792,4.32v1.843
				c0,3.343,2.651,6.791,5.959,7.287c0.366,0.052,0.727,0.081,1.083,0.081v0.468C27.082,54.525,15.208,61.25,12.86,63.581
				c-1.98,1.98-3.47,5.109-3.47,8.27c0,1.408,0.184,2.846,1.002,4.71l-6.875-0.017C1.574,76.544,0,78.122,0,80.065
				c0,1.948,1.574,3.525,3.518,3.525h29.315c1.743,0,2.95-1.872,2.11-3.402c-0.753-1.359-1.941-2.444-3.375-3.06
				c0.808-1.604,1.275-2.932,3.297-2.932h2.697v7.043c0,1.295,1.048,2.35,2.347,2.35h8.734c1.802,0,2.963-1.964,2.054-3.521
				c-1.08-1.847-2.992-3.158-5.225-3.438l0.527-4.178c2.823-1.733,4.9-4.608,5.471-7.938c0.798-4.664-1.185-8.877-4.518-11.395
				v-4.745h7.043c2.584,0,5.785-1.818,7.112-4.029c0.562-0.934,2.84-4.316,2.833-5.371C63.933,37.752,62.957,36.635,61.59,36.635z
				 M32.855,48.35c-2.872,0-4.683-2.435-4.683-4.933v-1.902c0-0.977,0.37-1.935,1.101-2.662l5.495-5.495
				c0.74-0.74,1.727-1.23,2.794-1.357v11.678C37.562,46.188,35.54,48.35,32.855,48.35z M3.518,81.24
				c-0.646,0-1.175-0.522-1.175-1.175c0-0.642,0.529-1.171,1.169-1.171c8.504,0.019,6.394,0.016,8.296,0.019
				c0.87,1.143,1.012,1.337,2.346,2.327H3.518z M59.093,43.137c-0.95,1.59-3.249,2.889-5.099,2.889h-5.985
				c-1.531,0-2.82-0.986-3.311-2.347h-2.44c0.298,1.474,1.165,2.733,2.346,3.58v7.034c3.379,2.558,5.3,5.466,4.551,9.825
				c-0.595,3.459-2.688,5.294-5.35,6.929c-0.561,4.512-0.734,5.878-0.951,7.628c2.366,0.292,4.498,0.298,5.787,2.566
				c-4.911,0-3.833,0-8.734,0c0-5.627,0-6.085,0-11.739h-2.347v2.35c-0.623,0-1.12,0-2.697,0c-0.72,0-1.395,0.191-2.038,0.461
				c0.117-3.191-1.039-6.403-3.402-8.763l-1.656,1.659c3.48,3.482,3.266,8.581,1.279,11.687l-0.701,1.393
				c1.824,0.792,3.576,1.285,4.485,2.953H21.12c-5.203-0.002-9.312-4.197-9.371-9.263c-0.052-2.811,1.224-5.713,3.804-7.634
				c2.583-1.928,16.867-10.188,19.658-11.797c0-0.64,0.003-1.649,0-2.26c2.73-0.967,4.697-3.547,4.697-6.608v-11.74h6.475
				c1.243,0,2.441,0.497,3.317,1.377l2.918,2.914c1.674,1.675,3.873,2.605,6.219,2.71c0.247,0.854,0.824,1.559,1.59,1.973
				L59.093,43.137z"/>
		</g>
	</g>
</g>
</svg>
