<?xml version="1.0" encoding="utf-8"?>
<!-- Generator: Adobe Illustrator 16.0.0, SVG Export Plug-In . SVG Version: 6.00 Build 0)  -->
<!DOCTYPE svg PUBLIC "-//W3C//DTD SVG 1.1//EN" "http://www.w3.org/Graphics/SVG/1.1/DTD/svg11.dtd">
<svg version="1.1" id="Layer_1" xmlns="http://www.w3.org/2000/svg" xmlns:xlink="http://www.w3.org/1999/xlink" x="0px" y="0px"
	 width="200px" height="200px" viewBox="0 0 200 200" enable-background="new 0 0 200 200" xml:space="preserve">
<g>
	<path fill="#FFFFFF" d="M129.805,53.21H70.195c-9.514,0-17.255,7.741-17.255,17.255v59.609c0,9.515,7.741,17.258,17.255,17.258
		h59.609c9.514,0,17.258-7.741,17.258-17.258V70.465C147.063,60.951,139.321,53.21,129.805,53.21z M100,131.256
		c-17.083,0-30.983-13.9-30.983-30.986c0-17.083,13.9-30.983,30.983-30.983c17.086,0,30.985,13.9,30.985,30.983
		C130.985,117.354,117.084,131.256,100,131.256z M131.981,75.692c-4.044,0-7.333-3.289-7.333-7.331c0-4.042,3.289-7.331,7.333-7.331
		c4.042,0,7.331,3.289,7.331,7.331C139.313,72.403,136.023,75.692,131.981,75.692z"/>
	<path fill="#FFFFFF" d="M100,82.379c-9.862,0-17.893,8.026-17.893,17.888c0,9.866,8.03,17.895,17.893,17.895
		c9.867,0,17.891-8.028,17.891-17.895C117.891,90.408,109.864,82.379,100,82.379z"/>
	<path fill="#FFFFFF" d="M100,0C44.774,0,0,44.774,0,100c0,55.227,44.774,100,100,100c55.227,0,100-44.773,100-100
		C200,44.774,155.227,0,100,0z M160.152,130.074c0,16.736-13.611,30.348-30.348,30.348H70.195
		c-16.734,0-30.348-13.611-30.348-30.348V70.465c0-16.734,13.614-30.348,30.348-30.348h59.609c16.736,0,30.348,13.614,30.348,30.348
		V130.074z"/>
</g>
</svg>
