<?xml version="1.0" encoding="utf-8"?>
<!-- Generator: Adobe Illustrator 16.0.0, SVG Export Plug-In . SVG Version: 6.00 Build 0)  -->
<!DOCTYPE svg PUBLIC "-//W3C//DTD SVG 1.1//EN" "http://www.w3.org/Graphics/SVG/1.1/DTD/svg11.dtd">
<svg version="1.1" id="Layer_1" xmlns="http://www.w3.org/2000/svg" xmlns:xlink="http://www.w3.org/1999/xlink" x="0px" y="0px"
	 width="152.771px" height="152.833px" viewBox="0 0 152.771 152.833" enable-background="new 0 0 152.771 152.833"
	 xml:space="preserve">
<path fill="#E6E7E8" d="M152.771,76.516c0,42.154-34.176,76.332-76.338,76.332S0.095,118.67,0.095,76.516
	c0-42.164,34.175-76.34,76.337-76.34C118.594,0.176,152.771,34.352,152.771,76.516z"/>
<g>
	<g>
		<g>
			<path fill="#00A79D" d="M76.381,38.416c5.142,0,9.306,4.164,9.306,9.301c0,5.135-4.164,9.299-9.306,9.299
				c-5.136,0-9.296-4.164-9.296-9.299C67.084,42.579,71.245,38.416,76.381,38.416z"/>
			<path fill="#00A79D" d="M84.159,80.768l5.854-2.38l-3.751-6.096c-0.52,1.091-1.153,2.097-1.933,2.994
				c-2.407,2.8-5.87,4.419-10.009,4.693c-0.083,0.006-0.164,0.006-0.249,0.006c-1.879,0-3.47-1.46-3.594-3.367
				c-0.133-1.994,1.376-3.708,3.37-3.842c1.506-0.096,3.583-0.582,5.01-2.2c5.023-5.69-0.952-10.4,4.271-15.724
				c0,0,0.683-0.761,1.585-1.285c0.856-0.504,1.931-0.889,1.931-0.889l0.023-0.012c3.065-0.982,7.245-0.555,9.242,2.703
				l10.748,17.498c0.496,0.818,1.08,2.163,1.001,3.788l-1.001,16.221l9.426-1.283c2.459-0.334,4.739,1.39,5.072,3.859
				c0.337,2.467-1.392,4.739-3.856,5.072l-14.872,2.03c-0.2,0.024-0.4,0.044-0.607,0.044c-1.123,0-2.227-0.426-3.069-1.207
				c-0.987-0.919-1.516-2.234-1.433-3.581l0.793-12.868l-7.6,2.977l0.523,11.547c0.113,2.484-1.813,4.595-4.3,4.709
				c-0.067,0-0.137,0-0.207,0c-2.396,0-4.393-1.885-4.502-4.303l-0.67-14.723C81.267,83.247,82.391,81.489,84.159,80.768z"/>
			<path fill="#00A79D" d="M54.575,84.429l12.034,5.019L71.6,88c1.125-0.326,2.307,0.319,2.637,1.453
				c0.323,1.127-0.324,2.311-1.452,2.631l-5.212,1.508l-3.222,6.978c-0.239,0.746-0.881,1.332-1.706,1.454l-2.519,0.375l2.679,1.357
				c1.048,0.529,1.467,1.806,0.938,2.854c-0.373,0.744-1.124,1.171-1.898,1.171c-0.325,0-0.652-0.074-0.961-0.232l-8.66-4.375
				c-0.821-0.418-1.285-1.327-1.137-2.241c0.146-0.915,0.866-1.63,1.788-1.765l1.624-0.235l-8.257-3.396l0.012,9.369
				c0.003,1.178-0.954,2.129-2.124,2.129l0,0c-1.176,0-2.127-0.951-2.131-2.129l-0.016-11.848c-0.002-0.072-0.006-0.122-0.006-0.193
				v-7.007L54.575,84.429z"/>
			<path fill="#00A79D" d="M33.374,75.273c0.712-2.182,6.525-1.697,7.146-1.933c1.846-0.696,2.906-1.975,4.837-2.413
				c0.338-0.078,0.678-0.157,1.021-0.2c0.207-0.023,0.304-0.102,0.362-0.297c0.193-0.643,0.39-1.285,0.596-1.921
				c0.373-1.139,1.109-2.012,2.268-2.297c0.466-0.109,2.579-0.236,2.127,3c-0.093,0.704-0.13,1.425-0.072,2.128
				c0.224,2.587,0.815,5.109,1.333,7.653c0.242,1.149,0.475,2.307,0.706,3.459l-11.622,1.441c0,0-0.982-2.738-1.288-2.732
				c-0.412,0.006-0.831,0.012-1.254,0.019c-1.219,0.019-2.386-0.224-3.485-0.757C34.168,79.508,32.596,77.648,33.374,75.273z"/>
			<path fill="#00A79D" d="M70.12,102.368c0.02-0.019,0.037-0.041,0.059-0.061c0.542-0.473,1.284-0.564,1.905-0.297
				c0.017-0.024,0.024-0.043,0.046-0.066c0.082-0.104,0.144-0.201,0.245-0.279c0.092-0.078,0.173-0.146,0.258-0.205
				c0.143-0.123,0.328-0.151,0.414-0.183c0.099-0.03,0.152-0.055,0.152-0.055s-0.024,0.06-0.055,0.155
				c-0.024,0.101-0.099,0.201-0.084,0.365c0.003,0.072,0.006,0.15,0.009,0.236c0,0.072,0.042,0.178,0.061,0.254
				c0.04,0.15,0.144,0.338,0.223,0.497c0.082,0.127,0.153,0.235,0.238,0.353c0.031,0.012,0.07,0.019,0.108,0.031
				c0.013,0.004,0.034,0.012,0.053,0.016c0.147,0.025,0.957,0.334,1.188,0.451c0.232,0.113,0.472,0.235,0.799,0.521
				c0.161,0.153,0.397,0.351,0.577,0.854c0.079,0.246,0.097,0.592,0.012,0.885c-0.037,0.134-0.094,0.277-0.16,0.375
				c-0.055,0.09-0.131,0.193-0.19,0.262c-0.265,0.279-0.443,0.339-0.615,0.43c-0.164,0.063-0.297,0.104-0.427,0.129
				c-0.252,0.055-0.468,0.077-0.677,0.084c-4.899,0.188-5.097-0.496-5.653-1.074c-0.831-0.865-0.808-2.246,0.063-3.078
				C69.072,102.572,69.596,102.381,70.12,102.368z"/>
			<path fill="#F6B63E" d="M71.011,98.943c0.232-0.077,0.487,0.056,0.563,0.285c0.097,0.291,0.139,0.466,0.139,0.466
				c0.056,0.249-0.097,0.492-0.334,0.547c-0.039,0.012-0.071,0.012-0.105,0.012c-0.206,0-0.394-0.14-0.439-0.346
				c0-0.012-0.036-0.164-0.114-0.396C70.643,99.276,70.771,99.022,71.011,98.943z"/>
			<path fill="#F6B63E" d="M67.969,94.931c0.297,0.129,0.582,0.284,0.856,0.474c0.207,0.133,0.262,0.411,0.123,0.624
				c-0.089,0.128-0.23,0.193-0.379,0.193c-0.084,0-0.167-0.019-0.246-0.073c-0.228-0.148-0.47-0.283-0.721-0.398
				c-0.226-0.098-0.331-0.363-0.229-0.588C67.475,94.931,67.739,94.829,67.969,94.931z"/>
			<path fill="#F6B63E" d="M70.393,98.192c-0.152,0-0.301-0.08-0.383-0.212c-0.136-0.233-0.297-0.468-0.479-0.696
				c-0.157-0.201-0.124-0.479,0.07-0.632c0.193-0.163,0.479-0.12,0.633,0.073c0.19,0.242,0.375,0.503,0.549,0.781
				c0.13,0.211,0.06,0.492-0.154,0.625C70.557,98.174,70.475,98.192,70.393,98.192z"/>
		</g>
	</g>
</g>
</svg>
