<?xml version="1.0" encoding="utf-8"?>
<!-- Generator: Adobe Illustrator 16.0.0, SVG Export Plug-In . SVG Version: 6.00 Build 0)  -->
<!DOCTYPE svg PUBLIC "-//W3C//DTD SVG 1.1//EN" "http://www.w3.org/Graphics/SVG/1.1/DTD/svg11.dtd">
<svg version="1.1" id="Layer_1" xmlns="http://www.w3.org/2000/svg" xmlns:xlink="http://www.w3.org/1999/xlink" x="0px" y="0px"
	 width="152.771px" height="152.833px" viewBox="0 0 152.771 152.833" enable-background="new 0 0 152.771 152.833"
	 xml:space="preserve">
<path fill="#E6E7E8" d="M152.801,76.417c0,42.192-34.199,76.4-76.401,76.4c-42.192,0-76.4-34.208-76.4-76.4
	C0,34.221,34.208,0.016,76.4,0.016C118.602,0.016,152.801,34.221,152.801,76.417z"/>
<g>
	<g>
		<g>
			<circle fill="#00A79D" cx="104.784" cy="38.471" r="7.135"/>
		</g>
	</g>
	<g>
		<g>
			<path fill="#00A79D" d="M102.167,68.244c0.182,1.069,0.882,1.976,1.867,2.413l11.802,5.26c1.564,0.699,3.366,0.042,4.155-1.407
				c0.903-1.669,0.19-3.731-1.526-4.496l-10.207-4.554l-2.051-12.125l4.37,9.733l0.817-9.443c0.23-2.653-1.738-4.987-4.394-5.214
				l-8.563-0.736c-2.637-0.228-4.96,1.713-5.205,4.341l-7.821,6.737c-0.252,0.219-0.471,0.473-0.646,0.762l-7.442,12.169
				c-0.925,1.523-0.449,3.506,1.075,4.439c0.059,0.033,0.115,0.067,0.179,0.097c-0.829,7.021-3.409,17.401-7.475,18.709
				c-1.731,0.555-3.867-0.598-6.352-3.413c0.215-0.239,0.477-0.439,0.776-0.576c0.601-0.272,1.284-0.29,1.896-0.042
				c1.424,0.576,3.046,0.154,4.014-1.035l1.177-1.465c0.263-0.328,0.373-0.752,0.304-1.168c-0.076-0.415-0.321-0.779-0.683-1.001
				l-1.978-1.211c-0.437-1.742-1.806-3.097-3.552-3.512l-0.047-0.012c0.101,0.785,0.146,1.746,0.125,2.508
				c-0.024,0.932-0.094,3.771-2.19,4.511c-1.826,0.649-3.476-0.843-4.699-2.329c-0.167-0.194-0.34-0.419-0.509-0.649
				c-0.995,1.335-1.872,2.518-1.872,2.518l-16.153,2.391c-0.962,0.14-1.856,0.51-2.624,1.049c-2.271-0.588-4.038-1.908-5.415-3.718
				c-0.84-1.087-1.605-2.445-2.099-3.811c-0.122-0.32-0.449-0.521-0.795-0.463c-0.394,0.066-0.654,0.438-0.594,0.833
				c0.27,1.59,0.849,3.245,1.571,4.638c1.059,2.078,2.611,3.898,4.726,5.218c-0.676,0.67-1.371,2.22-1.557,3.157
				c-0.296,2.143-0.27,5.518,0.094,7.766l-2.421,5.352c-0.449,1-0.008,2.173,0.989,2.622c0.995,0.454,2.172,0.011,2.621-0.99
				L38,107.36c2.112-1.172,4.657-4.044,5.575-5.658c0.662-1.174,1.05-2.627,1.05-4.156c0-0.585,0.477-1.061,1.062-1.061
				c0.592,0,1.065,0.476,1.065,1.061c0,1.33-0.249,2.589-0.698,3.711c3.943,0.51,8.147,1.022,10.823,1.331l0.725,8.852
				c0.091,1.093,1.047,1.904,2.139,1.813c1.092-0.088,1.902-1.046,1.816-2.135l-0.819-9.908c0.956-1.747,2.017-4.524,2.849-6.885
				c2.291,2.319,5.236,4.24,8.36,3.233c6.052-1.941,8.63-14.457,9.401-21.224c0.6-0.254,1.125-0.69,1.485-1.284l7.171-11.738
				l2.434-2.091l-1.04,12.114c-0.139,1.611-0.086,3.275,0.16,4.872c0.357,2.291,0.983,6.299,2.102,13.418l-6.182,16.387
				c-0.755,2.008,0.252,4.242,2.261,5c2.004,0.755,4.235-0.255,4.998-2.261l6.539-17.348c0.237-0.629,0.314-1.308,0.211-1.973
				l-2.205-14.024l2.047,0.173l6.186,13.697l4.315,18.968c0.471,2.087,2.552,3.397,4.646,2.918c2.083-0.472,3.391-2.554,2.918-4.641
				l-4.399-19.344c-0.057-0.258-0.139-0.507-0.248-0.741l-5.436-12.029l-6.537-2.916c-1.941-0.866-3.313-2.633-3.668-4.73
				c-0.085-0.508-0.109,0.447,0.801-13.904L102.167,68.244z"/>
		</g>
	</g>
	<g>
		<g>
			<path fill="#00A79D" d="M64.624,81.04c-0.235-0.676-1.562-1.048-2.875-0.585c-1.311,0.462-2.111,1.586-1.874,2.26
				c0.239,0.675,2.772,4.457,4.08,3.993C65.268,86.244,64.861,81.711,64.624,81.04z"/>
		</g>
	</g>
</g>
<polygon fill="#FBB040" points="70.173,71.707 62.875,68.889 56.404,73.311 56.832,65.488 50.631,60.707 58.196,58.693 60.83,51.32 
	65.082,57.895 72.908,58.121 67.971,64.195 "/>
</svg>
