<?xml version="1.0" encoding="utf-8"?>
<!-- Generator: Adobe Illustrator 16.0.0, SVG Export Plug-In . SVG Version: 6.00 Build 0)  -->
<!DOCTYPE svg PUBLIC "-//W3C//DTD SVG 1.1//EN" "http://www.w3.org/Graphics/SVG/1.1/DTD/svg11.dtd">
<svg version="1.1" id="Layer_1" xmlns="http://www.w3.org/2000/svg" xmlns:xlink="http://www.w3.org/1999/xlink" x="0px" y="0px"
	 width="152.771px" height="152.833px" viewBox="0 0 152.771 152.833" enable-background="new 0 0 152.771 152.833"
	 xml:space="preserve">
<circle fill="#E6E7E8" cx="76.502" cy="76.564" r="76.268"/>
<g>
	<g>
		<path fill="#00A79D" d="M103.197,101.945c-0.019,0-0.03,0-0.043,0l-6.079-0.012c0,0,7.127-6.019,7.309-6.23
			c1.992-1.811,3.197-4.366,2.586-7.206l-4.747-22.139c-0.878-4.126-5.063-6.106-8.617-6.207h-0.023c0,0-1.254,0.006-2.338,0.212
			c-1.126,0.218-2.113,0.76-2.113,0.76c-1.72,0.833-3.385,2.25-4.414,4.021c-0.072,0.112-0.157,0.212-0.218,0.333
			c-3.857,7.427-8.237,11.71-15.115,14.792c-2.004,0.896-2.907,3.251-2.004,5.256c0.66,1.483,2.113,2.361,3.633,2.361
			c0.548,0,1.102-0.115,1.628-0.352c5.226-2.337,9.369-5.304,12.875-9.317l3.046,14.223c0.146,0.689,0.388,1.308,0.69,1.877
			l-10.746,8.998c-1.756,1.471-2.401,3.881-1.608,6.037c0.785,2.137,2.817,3.554,5.094,3.554c0.012,0,0.024,0,0.042,0h21.199
			c2.997-0.024,5.413-2.628,5.389-5.625C108.599,104.289,106.176,101.945,103.197,101.945z"/>
		<path fill="#00A79D" d="M86.849,40.218c5.661,0,10.257,4.593,10.257,10.258S92.51,60.73,86.849,60.73
			c-5.668,0-10.259-4.59-10.259-10.254S81.181,40.218,86.849,40.218z"/>
		<path fill="#00A79D" d="M40.041,93.396l-2.846-2.288c-0.642-0.516-1.586-0.412-2.101,0.229c-0.518,0.642-0.417,1.58,0.227,2.102
			l2.904,2.331v6.352c0,0.03-2.546,5.02-2.546,5.02c-0.381,0.733-0.094,1.635,0.636,2.011c0.224,0.115,0.457,0.17,0.69,0.17
			c0.542,0,1.06-0.291,1.326-0.8l2.576-4.947l2.882,5.002c0.275,0.479,0.778,0.745,1.296,0.745c0.251,0,0.508-0.061,0.745-0.194
			c0.714-0.412,0.963-1.326,0.551-2.047l-2.516-4.365h9.31v5.116c0,0.823,0.669,1.496,1.496,1.496c0.826,0,1.496-0.666,1.496-1.496
			v-5.661c0.006-0.019,0.012-0.03,0.012-0.049v-4.735l-6.969-3.99H40.041L40.041,93.396z"/>
		<path fill="#00A79D" d="M60.047,90.356c-0.924-0.872-1.235-1.89-2.274-2.628c-0.179-0.134-0.363-0.267-0.554-0.376
			c-0.115-0.061-0.151-0.139-0.142-0.26c0.045-0.431,0.088-0.86,0.124-1.29c0.061-0.77-0.164-1.472-0.781-1.926
			c-0.245-0.182-1.471-0.775-2.004,1.254c-0.115,0.441-0.272,0.884-0.484,1.283c-0.769,1.478-1.744,2.828-2.677,4.202
			c-0.43,0.63-0.854,1.26-1.28,1.884l6.542,3.724c0,0,1.259-1.375,1.438-1.302c0.245,0.108,0.494,0.218,0.739,0.32
			c0.717,0.315,1.468,0.461,2.258,0.412c1.335-0.072,2.728-0.787,2.855-2.386C63.925,91.797,60.361,90.646,60.047,90.356z"/>
	</g>
</g>
</svg>
